/* XPM */
static const char* ICONE_xpm[] = {
"32 32 33 1",
" 	c None",
".	c #3A05D4",
"+	c #5A0BA7",
"@	c #7B0588",
"#	c #92096C",
"$	c #2833AB",
"%	c #592B85",
"&	c #9E1F53",
"*	c #683464",
"=	c #A32C39",
"-	c #234C9D",
";	c #51456D",
">	c #6E4151",
",	c #D92D07",
"'	c #5C5155",
")	c #3E5869",
"!	c #BA3E12",
"~	c #086796",
"{	c #73533B",
"]	c #117282",
"^	c #3C695F",
"/	c #A35216",
"(	c #855D1E",
"_	c #58693F",
":	c #9B6F05",
"<	c #0C9075",
"[	c #7D7A0F",
"}	c #219654",
"|	c #638B1A",
"1	c #3A9B34",
"2	c #0EB545",
"3	c #5AAC10",
"4	c #1CC926",
"                                ",
"                                ",
"                                ",
"                                ",
"                                ",
"                                ",
"                                ",
"                                ",
"                                ",
"                                ",
"                                ",
"                                ",
"                                ",
"                                ",
"                                ",
"                                ",
"                                ",
"      ^*^{)_'_*^*^{](;(%1.      ",
"      _>)>)_)[;_%^*^_)[-&|]     ",
"     >_>_*^>)_)_>_*)'~#|]#[     ",
"     )_'^>'';')_'_*<@(}%/}%*    ",
"    };^;_'^{'>)')}%=1-=1-&3-    ",
"    {;_*^'_'^{;_$&3~#|~#|]@[1   ",
"   +{){*_*^><{^@[<@(}+/}+/1+!   ",
"   ^>](;[%_*}+/2+!4.!4+=3$=3-   ",
"   }#<>^(;|$&3$&3~#|]@[<@:<+/2  ",
"  %|#}&</<@[<+:}+/2.!4.,4.,4.,  ",
"  ;|%|%2.,4.,4.,4.!4$=3-&|~#[]+ ",
" ()_;|$=1-&1~&|~#|]#[]@[<@:<+:} ",
" >){]@[<@:<+:2+/2+!2+!2+!1$=1-&:",
"]>}+/}+/}$/1$=1-&1-&|~#|~#|]#|]@",
"1-=1-&3-&3-&3~#3~#|]@[<@:<+:}+/1"};
